# xmcd
#
# Track frame offsets: 
#        150
#        13893
#        27219
#        38511
#        52041
#        62727
#        77825
#        92844
#        104342
#        117883
#
# Disc length: 1870 seconds
#
# Revision: 0
# Processed by: cddbd v1.5.2PL0 Copyright (c) Steve Scherf et al.
# Submitted via: ExactAudioCopy v0.99pb5
#
DISCID=7b074c0a
DTITLE=Vernon Ray Harrington - West Side Blues
DYEAR=2010
DGENRE=Blues
TTITLE0=You Did Me Wrong
TTITLE1=The Things I Used To Do
TTITLE2=Out Of Bad Luck
TTITLE3=Lottery Blues
TTITLE4=Kidding
TTITLE5=You Don't Love Me
TTITLE6=Crackhead Woman
TTITLE7=Cut You Loose
TTITLE8=Tore Down
TTITLE9=Help Me With The Bills
EXTD=
EXTT0=
EXTT1=
EXTT2=
EXTT3=
EXTT4=
EXTT5=
EXTT6=
EXTT7=
EXTT8=
EXTT9=
PLAYORDER=
